# AST/ASF file generated using VICON BodyLanguage
# -----------------------------------------------
:version 1.10
:name VICON
:units
  mass 1.0
  length 0.45
  angle deg
:documentation
   .ast/.asf automatically generated from VICON data using
   VICON BodyBuilder and BodyLanguage model FoxedUp or BRILLIANT.MOD
:root
   order TX TY TZ RX RY RZ
   axis XYZ
   position 0 0 0  
   orientation 0 0 0 
:bonedata
  begin
     id 1 
     name lhipjoint
     direction 0.523584 -0.783993 0.333487 
     length 2.44404 
     axis 0 0 0  XYZ
  end
  begin
     id 2 
     name lfemur
     direction 0.34202 -0.939693 0  
     length 7.29523  
     axis 0 0 20  XYZ
    dof rx ry rz
    limits (-160.0 20.0)
           (-70.0 70.0)
           (-60.0 70.0)
  end
  begin
     id 3 
     name ltibia
     direction 0.34215 -0.939645 0   
     length 7.81194   
     axis 0 0 20   XYZ
    dof rx
    limits (-10.0 170.0)
  end
  begin
     id 4 
     name lfoot
     direction 0.0941847 -0.25877 0.961336   
     length 2.41437   
     axis -90 7.62852e-016 20   XYZ
    dof rx rz
    limits (-45.0 90.0)
           (-70.0 20.0)
  end
  begin
     id 5 
     name ltoes
     direction 1.53526e-011 -4.21768e-011 1   
     length 1.2048   
     axis -90 7.62852e-016 20   XYZ
    dof rx
    limits (-90.0 20.0)
  end
  begin
     id 6 
     name rhipjoint
     direction -0.46599 -0.814191 0.346332   
     length 2.35339  
     axis 0 0 0  XYZ 
  end
  begin
     id 7 
     name rfemur
     direction -0.34202 -0.939693 0   
     length 7.34966   
     axis 0 0 -20   XYZ
    dof rx ry rz
    limits (-160.0 20.0)
           (-70.0 70.0)
           (-70.0 60.0)
  end
  begin
     id 8 
     name rtibia
     direction -0.34202 -0.939693 0   
     length 7.89934   
     axis 0 0 -20   XYZ
    dof rx
    limits (-10.0 170.0)
 end
 begin
     id 9 
     name rfoot
     direction -0.0975468 -0.268008 0.958466   
     length 2.27725  
     axis -90 -7.62852e-016 -20   XYZ
    dof rx rz
    limits (-45.0 90.0)
           (-20.0 70.0)
  end
  begin
     id 10 
     name rtoes
     direction -1.53563e-011 -4.22022e-011 1   
     length 1.13683   
     axis -90 -7.62852e-016 -20   XYZ
    dof rx
    limits (-90.0 20.0)
  end
  begin
     id 11 
     name lowerback
     direction -0.00456414 0.999242 -0.0386661   
     length 2.16968   
     axis 0 0 0   XYZ
    dof rx ry rz
    limits (-20.0 45.0)
           (-30.0 30.0)
           (-30.0 30.0)
  end
  begin
     id 12 
     name upperback
     direction 0.0297078 0.998988 0.0337799   
     length 2.15674   
     axis 0 0 0   XYZ
    dof rx ry rz
    limits (-20.0 45.0)
           (-30.0 30.0)
           (-30.0 30.0)
  end
  begin
     id 13 
     name thorax
     direction 0.0309305 0.998202 0.0513506   
     length 2.16319   
     axis 0 0 0   XYZ
    dof rx ry rz
    limits (-20.0 45.0)
           (-30.0 30.0)
           (-30.0 30.0)
  end
  begin
     id 14 
     name lowerneck
     direction -0.103039 0.983474 0.148872   
     length 1.64318   
     axis 0 0 0   XYZ
    dof rx ry rz
    limits (-20.0 45.0)
           (-30.0 30.0)
           (-30.0 30.0)
  end
  begin
     id 15 
     name upperneck
     direction 0.128124 0.971079 -0.201469   
     length 1.68242   
     axis 0 0 0   XYZ
    dof rx ry rz
    limits (-20.0 45.0)
           (-30.0 30.0)
           (-30.0 30.0)
  end
  begin
     id 16
     name head
     direction 0.0496365 0.994919 -0.0875941  
     length 1.70108  
     axis 0 0 0   XYZ
    dof rx ry rz
    limits (-20.0 45.0)
           (-30.0 30.0)
           (-30.0 30.0)
  end
  begin
     id 17 
     name lclavicle
     direction 0.887148 0.430222 -0.166967  
     length 3.25763  
     axis 0 0 0   XYZ
    dof ry rz
    limits (-20.0 10.0)
           (0.0 20.0)
  end
  begin
     id 18 
     name lhumerus
     direction 1 -4.48962e-011 1.92156e-027   
     length 5.10755   
     axis 180 -30 -90   XYZ
    dof rx ry rz
    limits (-60.0 90.0)
           (-90.0 90.0)
           (-90.0 90.0)
  end
  begin
     id 19
     name lradius
     direction 1 -4.48958e-011 7.10963e-027   
     length 3.36253   
     axis 180 -30 -90   XYZ
    dof rx
    limits (-10.0 170.0)
  end
  begin
     id 20
     name lwrist
     direction 1 -4.48946e-011 1.82396e-026   
     length 1.68127   
     axis -1.15222e-014 90 90   XYZ
    dof ry
    limits (-180.0 0.0)
 end
  begin
     id 21 
     name lhand
     direction 1 -4.48919e-011 3.64759e-026   
     length 0.619088   
     axis -2.32787e-014 90 90   XYZ
    dof rx rz
    limits (-90.0 90.0)
           (-45.0 45.0)
  end
  begin
     id 22 
     name lfingers
     direction 1 -4.49012e-011 7.29744e-026   
     length 0.499125   
     axis -4.6558e-014 90 90   XYZ
    dof rx
    limits (0.0 90.0)
  end
  begin
     id 23
     name lthumb
     direction 0.707107 -6.35028e-011 0.707107   
     length 0.716646   
     axis -90 45 3.78391e-014   XYZ
    dof rx rz
    limits (-45.0 45.0)
           (-45.0 45.0)
  end
  begin
     id 24 
     name rclavicle
     direction -0.82886 0.533198 -0.169384   
     length 3.20647  
     axis 0 0 0   XYZ 
    dof ry rz
    limits (-10.0 20.0)
           (-20.0 0.0)
  end
  begin
     id 25 
     name rhumerus
     direction -1 -4.48973e-011 3.06863e-027  
     length 5.27387   
     axis 180 30 90   XYZ
    dof rx ry rz
    limits (-90.0 60.0)
           (-90.0 90.0)
           (-90.0 90.0)
  end
  begin
     id 26 
     name rradius
     direction -1 -4.48988e-011 9.4797e-027   
     length 3.40144   
     axis 180 30 90   XYZ
    dof rx
    limits (-10.0 170.0)
  end
  begin
     id 27 
     name rwrist
     direction -1 -4.48897e-011 1.82366e-026   
     length 1.70072   
     axis -1.15222e-014 -90 -90   XYZ
    dof ry
    limits (-180.0 0.0)
  end
  begin
     id 28
     name rhand
     direction -1 -4.48965e-011 3.64815e-026   
     length 0.742821   
     axis -2.32787e-014 -90 -90   XYZ
    dof rx rz
    limits (-90.0 90.0)
           (-45.0 45.0)
  end
  begin
     id 29
     name rfingers
     direction -1 -4.49016e-011 7.29754e-026   
     length 0.598881   
     axis -4.6558e-014 -90 -90   XYZ
    dof rx
    limits (0.0 90.0)
  end
  begin
     id 30
     name rthumb
     direction -0.707107 -6.3488e-011 0.707107   
     length 0.859877   
     axis -90 -45 -3.78391e-014   XYZ
    dof rx rz
    limits (-45.0 45.0)
           (-45.0 45.0)
  end
:hierarchy
  begin
    root lhipjoint rhipjoint lowerback
    lhipjoint lfemur
    lfemur ltibia
    ltibia lfoot
    lfoot ltoes
    rhipjoint rfemur
    rfemur rtibia
    rtibia rfoot
    rfoot rtoes
    lowerback upperback
    upperback thorax
    thorax lowerneck lclavicle rclavicle
    lowerneck upperneck
    upperneck head
    lclavicle lhumerus
    lhumerus lradius
    lradius lwrist
    lwrist lhand lthumb
    lhand lfingers
    rclavicle rhumerus
    rhumerus rradius
    rradius rwrist
    rwrist rhand rthumb
    rhand rfingers
  end

#!OML:ASF F:\Work\Patient Classification 1\justin\Session 1\justin.ASF
:FULLY-SPECIFIED
:DEGREES
1
root 0.484674 18.3673 -5.66129 0.0499088 -0.0894583 -1.00438
lowerback 8.84235 -0.514119 -0.185866
upperback -1.68076 -0.426298 4.29692
thorax -6.7098 -0.109113 4.70222
lowerneck -19.0946 -6.96482 -15.957
upperneck 22.1838 -7.65362 10.5103
head 11.4425 -3.60567 5.32639
rclavicle -9.13167e-015 3.18055e-014
rhumerus -35.98 -14.7209 -72.6539
rradius 23.9299
rwrist 6.79332
rhand -20.6893 16.2877
rfingers 7.12502
rthumb 5.67431 -13.6163
lclavicle -9.13167e-015 3.18055e-014
lhumerus -40.219 8.55889 86.6225
lradius 31.0842
lwrist -4.26845
lhand -10.0929 27.2957
lfingers 7.12502
lthumb 15.8942 56.6634
rfemur -5.57101 2.24502 21.0511
rtibia 20.9552
rfoot -11.473 -6.66201
rtoes -14.5041
lfemur -2.88805 0.320314 -17.83
ltibia 16.1876
lfoot -9.68832 -2.29944
ltoes -11.9524
2
root 0.50422 18.3693 -5.66383 -0.000799425 -0.311796 -1.0037
lowerback 8.91514 -0.435468 -0.142999
upperback -1.59228 -0.322129 4.22951
thorax -6.66615 -0.0626679 4.59003
lowerneck -19.4203 -7.03284 -15.8953
upperneck 22.2419 -7.7519 10.6279
head 11.5451 -3.62246 5.34276
rclavicle 6.88292e-015 7.95139e-015
rhumerus -36.0435 -14.7121 -72.7789
rradius 24.0243
rwrist 6.80501
rhand -20.9932 14.9611
rfingers 7.12502
rthumb 5.38089 -14.9506
lclavicle 6.88292e-015 7.95139e-015
lhumerus -40.1551 8.45103 86.4818
lradius 31.2567
lwrist -3.90478
lhand -10.0473 27.9184
lfingers 7.12502
lthumb 15.9381 57.2826
rfemur -5.48864 2.30526 20.97
rtibia 20.8531
rfoot -11.4342 -6.47682
rtoes -14.2626
lfemur -2.78596 0.47923 -17.8987
ltibia 16.1168
lfoot -9.73472 -2.27323
ltoes -12.0157
3
root 0.517179 18.3711 -5.66333 -0.0722907 -0.268392 -1.07968
lowerback 8.97296 -0.482323 -0.103592
upperback -1.50031 -0.382748 4.22209
thorax -6.59672 -0.0961905 4.56729
lowerneck -19.6752 -7.06894 -15.7504
upperneck 22.2847 -7.80706 10.6151
head 11.6117 -3.62947 5.30224
rclavicle -1.51076e-014 -1.90833e-014
rhumerus -35.8964 -14.8058 -72.8476
rradius 23.8559
rwrist 6.99465
rhand -21.1431 12.8114
rfingers 7.12502
rthumb 5.23613 -17.104
lclavicle -1.51076e-014 -1.90833e-014
lhumerus -39.9929 8.59328 86.2311
lradius 31.1353
lwrist -3.8936
lhand -9.89349 28.0551
lfingers 7.12502
lthumb 16.0862 57.4074
rfemur -5.33658 2.2913 21.0289
rtibia 20.7399
rfoot -11.4552 -6.53564
rtoes -13.8699
lfemur -2.66911 0.55 -17.837
ltibia 16.0326
lfoot -9.70098 -2.43546
ltoes -12.0673
4
root 0.529054 18.3722 -5.65799 -0.18297 -0.15985 -1.15257
lowerback 8.99304 -0.579425 -0.151407
upperback -1.46077 -0.514158 4.29824
thorax -6.55497 -0.158487 4.69431
lowerneck -19.6257 -7.04347 -15.8235
upperneck 22.3394 -7.76807 10.6455
head 11.6218 -3.61709 5.33563
rclavicle -1.54804e-014 1.43125e-014
rhumerus -35.8475 -15.1304 -72.5673
rradius 23.3549
rwrist 7.30324
rhand -20.863 13.7943
rfingers 7.12502
rthumb 5.50667 -16.1141
lclavicle -1.54804e-014 1.43125e-014
lhumerus -39.9567 9.03333 85.9786
lradius 30.9865
lwrist -3.77682
lhand -9.80316 27.8417
lfingers 7.12502
lthumb 16.1732 57.187
rfemur -5.12852 2.2606 21.0903
rtibia 20.6614
rfoot -11.4568 -6.66201
rtoes -13.7332
lfemur -2.48823 0.569359 -17.7762
ltibia 15.9543
lfoot -9.63982 -2.58738
ltoes -12.2544
5
root 0.542524 18.3718 -5.65568 -0.267611 -0.204918 -1.19458
lowerback 9.10624 -0.627957 -0.216482
upperback -1.50622 -0.577593 4.3726
thorax -6.66187 -0.183431 4.82475
lowerneck -19.47 -6.99158 -16.0401
upperneck 22.4151 -7.69112 10.7705
head 11.6244 -3.59263 5.43872
rclavicle 1.0312e-015 -2.06736e-014
rhumerus -35.992 -15.5208 -72.1601
rradius 22.9145
rwrist 7.86669
rhand -20.7533 15.2667
rfingers 7.12502
rthumb 5.61258 -14.639
lclavicle 1.0312e-015 -2.06736e-014
lhumerus -40.1688 9.49342 85.7388
lradius 31.0771
lwrist -3.46462
lhand -9.91522 27.6562
lfingers 7.12502
lthumb 16.0653 57.0102
rfemur -4.98283 2.31501 21.0965
rtibia 20.5953
rfoot -11.424 -6.71243
rtoes -13.7951
lfemur -2.3398 0.688322 -17.7625
ltibia 15.9241
lfoot -9.64118 -2.66448
ltoes -12.376
6
root 0.559993 18.372 -5.65767 -0.266704 -0.279193 -1.10237
lowerback 9.1399 -0.623427 -0.361192
upperback -1.5043 -0.587953 4.36812
thorax -6.67694 -0.182789 4.90507
lowerneck -19.3364 -6.97941 -16.1309
upperneck 22.2796 -7.68326 10.8644
head 11.5543 -3.58782 5.48899
rclavicle 1.35298e-014 4.77083e-015
rhumerus -36.1173 -15.65 -72.0068
rradius 22.8705
rwrist 8.26134
rhand -20.8104 15.0806
rfingers 7.12502
rthumb 5.55743 -14.8265
lclavicle 1.35298e-014 4.77083e-015
lhumerus -40.3103 9.6638 85.6029
lradius 31.3417
lwrist -3.35196
lhand -9.90078 28.002
lfingers 7.12502
lthumb 16.0792 57.3549
rfemur -4.96883 2.21862 20.9066
rtibia 20.5401
rfoot -11.3949 -6.59725
rtoes -15.0804
lfemur -2.3033 0.748014 -17.9333
ltibia 15.9176
lfoot -9.69156 -2.65111
ltoes -12.4146
7
root 0.576711 18.3725 -5.66522 -0.236947 -0.495664 -1.14021
lowerback 9.10237 -0.55066 -0.421786
upperback -1.43368 -0.499286 4.39391
thorax -6.58762 -0.13866 4.9513
lowerneck -19.1611 -7.01725 -16.051
upperneck 21.9496 -7.75231 10.8084
head 11.4003 -3.61842 5.43259
rclavicle -1.15295e-014 -9.54166e-015
rhumerus -36.1866 -15.5534 -72.0654
rradius 23.0815
rwrist 8.28523
rhand -20.4207 16.2223
rfingers 7.12502
rthumb 5.93364 -13.6746
lclavicle -1.15295e-014 -9.54166e-015
lhumerus -40.1573 9.80701 85.4597
lradius 31.1548
lwrist -3.63005
lhand -10.0792 27.6641
lfingers 7.12502
lthumb 15.9074 57.0307
rfemur -5.05492 2.19995 20.8724
rtibia 20.5246
rfoot -11.3082 -6.49886
rtoes -15.7079
lfemur -2.30335 0.816389 -17.9575
ltibia 15.8967
lfoot -9.69914 -2.53521
ltoes -12.4866
8
root 0.591376 18.3742 -5.67313 -0.164578 -0.849949 -1.33646
lowerback 9.03708 -0.444341 -0.322659
upperback -1.38682 -0.34584 4.44235
thorax -6.51461 -0.0676846 4.92127
lowerneck -19.024 -7.10508 -15.9085
upperneck 21.7194 -7.88665 10.6537
head 11.2948 -3.68533 5.31957
rclavicle 6.63444e-015 -3.65764e-014
rhumerus -36.1114 -15.7684 -72.0809
rradius 22.9839
rwrist 8.06763
rhand -20.3364 17.5503
rfingers 7.12502
rthumb 6.01505 -12.3443
lclavicle 6.63444e-015 -3.65764e-014
lhumerus -40.0338 9.74514 85.3728
lradius 31.0492
lwrist -3.41119
lhand -10.1447 27.6533
lfingers 7.12502
lthumb 15.8443 57.0249
rfemur -5.23047 2.33603 21.0369
rtibia 20.5502
rfoot -11.2394 -6.48805
rtoes -15.4113
lfemur -2.3247 0.946495 -17.7893
ltibia 15.8487
lfoot -9.62735 -2.34603
ltoes -12.4908
9
root 0.606703 18.3781 -5.67409 -0.0944773 -0.926899 -1.32429
lowerback 9.00501 -0.451954 -0.369421
upperback -1.4035 -0.361924 4.43584
thorax -6.51238 -0.0738521 4.94301
lowerneck -19.0173 -7.13554 -15.9273
upperneck 21.726 -7.92674 10.6559
head 11.3034 -3.70516 5.31676
rclavicle -1.09332e-015 -3.02153e-014
rhumerus -36.0404 -16.1835 -71.8931
rradius 22.7083
rwrist 8.27069
rhand -20.3 17.7637
rfingers 7.12502
rthumb 6.05017 -12.1299
lclavicle -1.09332e-015 -3.02153e-014
lhumerus -40.1287 9.6957 85.3003
lradius 31.3668
lwrist -2.88531
lhand -9.89204 28.2885
lfingers 7.12502
lthumb 16.0876 57.6407
rfemur -5.33777 2.28969 20.955
rtibia 20.582
rfoot -11.2706 -6.45224
rtoes -16.4345
lfemur -2.34791 0.923661 -17.8626
ltibia 15.7774
lfoot -9.56398 -2.24879
ltoes -12.4644
10
root 0.624444 18.3797 -5.67221 -0.108842 -0.853336 -1.23541
lowerback 9.11876 -0.541846 -0.447701
upperback -1.43919 -0.489137 4.41055
thorax -6.60353 -0.132082 4.98312
lowerneck -19.1047 -7.13141 -16.1081
upperneck 21.8415 -7.91619 10.8688
head 11.3807 -3.69055 5.4339
rclavicle -9.81499e-015 5.08889e-014
rhumerus -36.1946 -16.0272 -71.8812
rradius 22.625
rwrist 7.99201
rhand -20.1626 18.5481
rfingers 7.12502
rthumb 6.1828 -11.3417
lclavicle -9.81499e-015 5.08889e-014
lhumerus -40.2709 9.83469 85.1168
lradius 31.5952
lwrist -2.70306
lhand -9.90359 28.2699
lfingers 7.12502
lthumb 16.0765 57.6231
rfemur -5.32081 2.11748 20.7782
rtibia 20.6199
rfoot -11.3208 -6.38053
rtoes -14.3886
lfemur -2.25484 0.813058 -18.0367
ltibia 15.6373
lfoot -9.55628 -2.21807
ltoes -12.6619
11
root 0.64673 18.3786 -5.66978 -0.14365 -0.886619 -1.2047
lowerback 9.16365 -0.579303 -0.404419
upperback -1.40321 -0.538094 4.35666
thorax -6.58704 -0.159718 4.90792
lowerneck -19.3037 -7.18473 -16.1709
upperneck 21.9837 -7.98045 10.981
head 11.4914 -3.70824 5.47898
rclavicle -1.4238e-014 3.49861e-014
rhumerus -36.317 -15.3895 -72.3411
rradius 23.2785
rwrist 7.50179
rhand -20.3938 15.6665
rfingers 7.12502
rthumb 5.9596 -14.2297
lclavicle -1.4238e-014 3.49861e-014
lhumerus -40.3093 9.81595 84.9642
lradius 31.7935
lwrist -2.51641
lhand -9.88795 28.4191
lfingers 7.12502
lthumb 16.0916 57.771
rfemur -5.306 1.86731 20.6392
rtibia 20.6699
rfoot -11.3378 -6.2004
rtoes -14.8048
lfemur -2.09164 0.752685 -18.17
ltibia 15.4431
lfoot -9.51936 -2.14391
ltoes -12.8662
